<?xml version="1.0" encoding="UTF-8"?>
<svg id="Layer_1" xmlns="http://www.w3.org/2000/svg" version="1.1" viewBox="0 0 632.8 233.8">
  <!-- Generator: Adobe Illustrator 29.0.0, SVG Export Plug-In . SVG Version: 2.1.0 Build 186)  -->
  <path d="M276.5,230.3c-1.5-.1-4.2-.7-5.6-1.2-6.9-2.3-11.3-7.1-15.5-12.6-6.2-8-13.1-18.6-18.3-27.3-6.7-11.2-11.8-18.9-7.6-32.6.5-1.7,3-5.5,2.7-6.6l-16.4-25.1c7.5-3.5,14.4-8.2,20.7-13.6l16.4,25.1c.9.6,5.4,0,7.2.1,14.2,1.6,19.3,9.3,26.8,20,5.6,7.9,19.7,28.4,22.1,36.8,5.4,19.8-12.5,38.9-32.3,36.9Z"/>
  <path d="M197.3,3.3c-38.5,0-69.7,31.2-69.7,69.7s31.2,69.7,69.7,69.7,18.4-1.9,26.6-5.2c7.8-3.2,14.8-7.8,20.9-13.4,13.7-12.7,22.3-30.9,22.3-51.1,0-38.5-31.2-69.7-69.7-69.7ZM197.2,98.4l-19.6,17.6,1.6-26.3-26-4.3,21.6-15.2-12.9-23.2,25.4,7.6c3.4-7.6,5.8-16,9.3-23.5.2-.5.2-1.2.8-1l9.9,24.3,24.7-7.3.8.3-13,23.1,21.4,14.9-26,4.3c.2,1.6,0,3.2.1,4.8.5,6.9,1.4,13.7,1.7,20.6,0,.4,0,.6-.3.8l-19.6-17.6Z"/>
  <g>
    <path d="M43.3,46.7c-1.8,0-3-.3-3.7-1-.6-.6-1-1.6-1-2.9V10.8c0-1.4.4-2.4,1.1-2.9.7-.5,2.1-.8,4.2-.8h69.7c3.3,0,5,1.5,5,4.4v93.7c0,6.1-1.3,11.5-3.8,16.3s-6.1,8.9-10.9,12.3c-4.8,3.3-10.5,5.9-17.2,7.7-6.7,1.8-14.3,2.7-22.8,2.7-20.2,0-35.2-4.3-44.9-12.8-9.7-8.6-14.6-21.7-14.6-39.3v-9.8c0-2.7,1.4-4.1,4.1-4.1h35.5c2.7,0,4.1,1.4,4.1,4.1v7.1c0,5.7,1.3,9.6,3.9,11.9,2.6,2.3,5.5,3.4,8.9,3.4s2.7,0,4.2-.2c1.5-.1,2.8-.5,4.1-1.3,1.2-.7,2.2-1.8,3-3.3.8-1.5,1.2-3.6,1.2-6.3v-45.2c0-1.2-.5-1.7-1.5-1.7h-28.4Z"/>
    <path d="M392.3,24.7c.5.6.8,1.3.8,1.9s0,.6-.2,1.1c-.1.5-.4,1-.8,1.6l-17.4,29.7c-.8,1.3-1.7,1.9-2.7,1.9-1.2-.1-2.4-.6-3.9-1.5-3.7-2.2-7.4-4.2-11-6.2-3.6-1.9-7.8-2.9-12.6-2.9s-6.3.5-9.2,1.6c-2.9,1.1-5.4,2.7-7.6,4.7-2.2,2.1-3.9,4.6-5.2,7.5-1.3,3-1.9,6.3-1.9,10s.6,6.9,1.8,9.8c1.2,3,2.9,5.5,5,7.7,2.1,2.2,4.6,3.9,7.5,5.1,2.9,1.2,6.1,1.8,9.6,1.8s8.1-.7,12.5-2.2c4.3-1.5,9.1-3.5,14.4-6.1,1.3-.6,2.2-1,2.8-1.1.6,0,.9,0,1.1,0,.9,0,1.7.6,2.3,1.9l14.1,33c.5,1.2.8,2.2,1,3.1,0,.8-.5,1.5-1.5,2.3-2.4,1.9-5.4,3.8-9,5.5-3.5,1.7-7.4,3.3-11.7,4.6-4.2,1.4-8.8,2.4-13.5,3.2-4.8.8-9.6,1.2-14.5,1.2-9.9,0-19.1-1.6-27.5-4.9-8.4-3.3-15.7-7.9-21.9-14-6.2-6-11-13.4-14.5-22-3.5-8.6-5.2-18.2-5.2-28.8s1.7-19.9,5-28.5c3.3-8.6,8-15.9,14-21.9,6-6,13.2-10.7,21.5-14.1,8.4-3.3,17.6-5,27.6-5s11.3.5,16.6,1.5c5.3,1,10.1,2.4,14.6,4.2,4.4,1.8,8.3,3.9,11.7,6.3,3.3,2.4,6,4.9,7.9,7.6Z"/>
    <path d="M399.1,142.3c-1.4,0-2.5-.3-3.2-.8-.7-.5-1.1-1.2-1.1-2.1s0-.8.2-1.2l42.3-127.1c.5-1.4,1-2.4,1.4-3.1.4-.6,1.3-1,2.7-1h45.2c1.4,0,2.3.3,2.7,1,.4.6.8,1.7,1.4,3.1l42.3,127.1c.1.5.2,1,.2,1.4,0,.8-.4,1.4-1.1,1.9-.7.5-1.8.8-3.2.8h-39.2c-1.4,0-2.3-.3-2.7-1-.4-.6-.8-1.7-1.4-3.1l-3.1-10.2c-.4-1-1-1.5-1.9-1.5h-32.8c-.9,0-1.4.1-1.6.4-.2.3-.4.7-.7,1.4l-3.1,10c-.4,1.4-.8,2.4-1.3,3.1-.5.6-1.4,1-2.8,1h-39.2ZM457,90.7c-.1.5-.2,1-.2,1.4,0,.6.3,1,1,1h12c.9,0,1.4-.4,1.4-1.4s0-.6-.2-1.2l-5.4-17.4c-.4-1.4-.8-2.1-1.4-2.1-.6.1-1.2.9-1.7,2.3l-5.4,17.4Z"/>
    <path d="M541,11.2c0-2.7,1.4-4.1,4.1-4.1h37.5c2.6,0,3.9,1.4,3.9,4.1v87.5c0,2.7,1.4,4.1,4.1,4.1h33.8c2.7,0,4.1,1.4,4.1,4.1v31.5c0,2.7-1.4,4.1-4.1,4.1h-79.2c-1,0-2.1-.3-3.1-1-.6-.6-1-1.7-1-3.1V11.2Z"/>
  </g>
</svg>